# xmcd
#
# Track frame offsets:
#  150
#  12828
#  24122
#  36599
#  49540
#  61359
#  73401
#  86098
#  98344
#  108754
#  120779
#  134629
#  146744
#  160606
#  173463
#  185345
#  198422
#  210646
#  223625
#  235566
#  246322
#  257974
#  269752
#  281032
#  292827
#  305064
#  316235
#  327880
#  341387
#  353520
#  368232
#
# Disc length: 5063 seconds
#
# Revision: 0
# Processed by: cddbd v1.5.2PL0 Copyright (c) Steve Scherf et al.
# Submitted via: AltoMP3_Maker 3.0
#
DISCID=c813c51f
DTITLE=Anthologies - Western Swing - You Oughta See My Fanny Dance - prev. unissued WS, 1935-42
DYEAR=1900
DGENRE=
TTITLE0=Out of Place - Roy Newman
TTITLE1=You Turned Me Down - Ocie Stockard
TTITLE2=I Don't Know Nothin' about Lovin' - Ocie Stockard
TTITLE3=Lovin' Baby Blues - Ocie Stockard
TTITLE4=I'll forget You Bye and Bye - Ocie Stockard
TTITLE5=Gee - Ocie Stockard
TTITLE6=Hold Me Daddy - Ocie Stockard
TTITLE7=You Oughta See My Fanny Dance - Nite Owls
TTITLE8=She Can't Be Satisfied - Al Dexter
TTITLE9=Fruit Wagon Gal - Slim Harbert
TTITLE10=I've Got Enough of Your Foolin' - Slim Harbert
TTITLE11=Honey This Time I'm Gone - Slim Harbert
TTITLE12=Around the Corner at Smokey Joe's - Slim Harbert
TTITLE13=Don't Check out on Me - Slim Harbert
TTITLE14=Who Comes in at My Back Door - Slim Harbert
TTITLE15=Look Who's Squawkin' - Slim Harbert
TTITLE16=Nagasaki - Roy Newman
TTITLE17=I'm Doing It Too - Hi Flyers
TTITLE18=Hash House Hattie - Dick Reinhart
TTITLE19=Tell Me if You Love Me - Leon Seplh
TTITLE20=When You Smile - Leon Seplh
TTITLE21=If You Should Go Away - Leon Seplh
TTITLE22=Some Day - Leon Seplh
TTITLE23=Now That You Have Gone - Leon Seplh
TTITLE24=She's Gone Away - Leon Seplh
TTITLE25=In My Dreams - Leon Seplh
TTITLE26=For the One I Love Is You - Adolph Hofner
TTITLE27=Rose of the Alamo - Adolph Hofner
TTITLE28=Let's Count the Stars - Adolph Hofner
TTITLE29=Sittin' on Top of the World - Bob Wills
TTITLE30=La Paloma - Bob Wills
EXTD=
EXTT0=
EXTT1=
EXTT2=
EXTT3=
EXTT4=
EXTT5=
EXTT6=
EXTT7=
EXTT8=
EXTT9=
EXTT10=
EXTT11=
EXTT12=
EXTT13=
EXTT14=
EXTT15=
EXTT16=
EXTT17=
EXTT18=
EXTT19=
EXTT20=
EXTT21=
EXTT22=
EXTT23=
EXTT24=
EXTT25=
EXTT26=
EXTT27=
EXTT28=
EXTT29=
EXTT30=
PLAYORDER=
